<?xml version="1.0" encoding="UTF-8"?>
<svg version="1.1" xmlns="http://www.w3.org/2000/svg" width="512" height="512">
<path d="M0 0 C13.84343485 4.8254575 27.28594283 8.92050949 41.77294922 11.26074219 C44.38318368 11.69063127 46.98738438 12.14036755 49.58886719 12.62060547 C50.40863037 12.76892822 51.22839355 12.91725098 52.07299805 13.07006836 C54.12402344 13.64794922 54.12402344 13.64794922 56.12402344 15.64794922 C56.38408566 17.74578285 56.38408566 17.74578285 56.3981781 20.39028931 C56.40815323 21.39117584 56.41812836 22.39206238 56.42840576 23.42327881 C56.42907043 24.52560852 56.42973511 25.62793823 56.43041992 26.76367188 C56.43874344 27.92154205 56.44706696 29.07941223 56.4556427 30.27236938 C56.47983324 34.11895059 56.48852737 37.96536239 56.49511719 41.81201172 C56.50181476 43.80624758 56.50851446 45.80048346 56.5155521 47.79471815 C56.53704515 54.0727878 56.54636068 60.35080336 56.54956055 66.62890625 C56.55318885 73.094396 56.58302732 79.55940899 56.62496513 86.02475321 C56.65973452 91.58072769 56.67511019 97.13654485 56.67580658 102.69262731 C56.67659771 106.00855477 56.68764217 109.32388951 56.71380424 112.63972855 C56.74070654 116.34552442 56.73589406 120.05001518 56.72338867 123.75585938 C56.74564011 125.39113586 56.74564011 125.39113586 56.76834106 127.05944824 C56.69467132 134.739111 54.93662054 139.53155895 49.71669674 145.16741371 C43.03550782 151.33812541 35.3121309 150.8926427 26.78417969 150.78076172 C24.56477726 150.78156815 22.34537488 150.78422927 20.12597656 150.78857422 C16.65176959 150.78660903 13.17924566 150.77285326 9.70532227 150.72705078 C6.33476633 150.68789436 2.96734417 150.69915363 -0.40332031 150.71826172 C-1.94897926 150.6797258 -1.94897926 150.6797258 -3.52586365 150.64041138 C-9.24859591 150.71626536 -12.23164023 151.38295768 -16.31958008 155.53027344 C-16.90780045 156.23175507 -17.49602081 156.93323669 -18.10206604 157.65597534 C-23.94042968 164.21203761 -33.71947254 167.15108279 -42.20019531 167.96826172 C-53.98334947 168.35714469 -64.0937828 165.71322921 -72.87597656 157.64794922 C-74.1425272 156.13276278 -74.1425272 156.13276278 -75.43466473 154.58696651 C-78.60331805 151.43615343 -80.95261338 150.93130179 -85.34041768 150.8315025 C-86.16891923 150.84284047 -86.99742078 150.85417844 -87.85102844 150.86585999 C-89.19064008 150.84864502 -89.19064008 150.84864502 -90.55731457 150.83108228 C-93.54469206 150.80016795 -96.53033145 150.8120512 -99.51782227 150.82397461 C-101.66172891 150.81093052 -103.80562155 150.79538015 -105.94949341 150.7775116 C-111.76996225 150.73733211 -117.58984682 150.7356065 -123.41042733 150.74320149 C-128.27122997 150.74641055 -133.13191438 150.73176057 -137.9926917 150.71738523 C-149.46225874 150.68409543 -160.93153106 150.68278909 -172.40112305 150.70092773 C-184.22802224 150.71904414 -196.05385045 150.68212456 -207.8805669 150.61821753 C-218.03877562 150.56534766 -228.19664371 150.54736889 -238.35498494 150.55713075 C-244.4202496 150.5625673 -250.48475058 150.55468375 -256.54989052 150.51298714 C-262.25577493 150.47522874 -267.95999247 150.4811008 -273.66585159 150.5202198 C-275.75679401 150.52731174 -277.84785398 150.51913107 -279.93866158 150.49435043 C-290.93867812 150.02428614 -290.93867812 150.02428614 -300.98863792 153.62286186 C-303.38323839 155.93410984 -303.38323839 155.93410984 -305.14607525 158.43160152 C-309.4631128 163.96258538 -317.31131265 166.03668659 -323.87597656 167.64794922 C-336.10266649 168.8072605 -347.20237231 167.2044823 -356.96191406 159.40576172 C-358.87597656 157.64794922 -358.87597656 157.64794922 -361.41601562 154.58178711 C-364.65454485 151.35455217 -367.12322508 150.94836587 -371.60165405 150.89265442 C-372.44241486 150.91115952 -373.28317566 150.92966461 -374.14941406 150.94873047 C-375.03198883 150.94213913 -375.9145636 150.93554779 -376.82388306 150.92875671 C-379.63369005 150.911331 -382.44127627 150.93320101 -385.25097656 150.96044922 C-388.05309178 150.97179479 -390.85454173 150.97431027 -393.65664673 150.96000671 C-395.39524003 150.95269222 -397.13398921 150.96057392 -398.87240601 150.98640442 C-405.85550752 150.98267249 -412.28558533 149.60734585 -417.68847656 144.83544922 C-418.23117187 144.37525391 -418.77386719 143.91505859 -419.33300781 143.44091797 C-423.08744292 139.07816933 -424.2521922 134.88356118 -424.2800293 129.21875 C-424.29271347 127.96369659 -424.30539764 126.70864319 -424.31846619 125.41555786 C-424.31641423 124.05812413 -424.31342578 122.70069153 -424.30957031 121.34326172 C-424.31413735 119.93610381 -424.31944447 118.52894814 -424.32545471 117.12179565 C-424.3343679 114.17810993 -424.33198422 111.23469574 -424.32202148 108.29101562 C-424.3105462 104.53626122 -424.33072895 100.78244934 -424.35993862 97.02781868 C-424.37837184 94.1228143 -424.37799393 91.21803271 -424.3723011 88.31298447 C-424.37214869 86.92962194 -424.37812644 85.54624353 -424.39059258 84.16293716 C-424.46396797 74.68516625 -423.77171575 68.61965447 -417.82519531 61.03076172 C-389.16694857 32.42201108 -346.7850615 22.76879757 -308.74902344 13.51513672 C-289.01017062 8.67494733 -269.91204966 2.42680723 -251.02194214 -5.05493164 C-223.14394867 -16.05070636 -194.83377842 -24.55164756 -164.87597656 -27.35205078 C-163.71066406 -27.46291016 -162.54535156 -27.57376953 -161.34472656 -27.68798828 C-105.41989333 -32.18629008 -52.2379587 -18.2359 0 0 Z " fill="#ED4D5A" transform="translate(439.8759765625,291.35205078125)"/>
<path d="M0 0 C1.08837937 -0.00523668 2.17675874 -0.01047336 3.29811931 -0.01586872 C6.94599609 -0.03087336 10.59373266 -0.03157399 14.24163818 -0.03224182 C16.85680885 -0.03986298 19.47197727 -0.0482904 22.08714294 -0.0574646 C29.1926038 -0.08028484 36.29803473 -0.08823193 43.40352726 -0.09329104 C47.84298458 -0.09655139 52.28243325 -0.1030759 56.72188568 -0.11029243 C69.02175746 -0.12985414 81.32162122 -0.14626098 93.62150955 -0.14916897 C94.40813541 -0.14935654 95.19476127 -0.14954411 96.00522427 -0.14973736 C97.59979264 -0.1501036 99.19436101 -0.1504673 100.78892937 -0.15082847 C101.58043754 -0.15101128 102.3719457 -0.1511941 103.18743896 -0.15138245 C104.37615601 -0.15165327 104.37615601 -0.15165327 105.58888754 -0.15192956 C118.42758057 -0.15547063 131.2661058 -0.18249061 144.10474065 -0.21988034 C157.29675263 -0.25799071 170.48868141 -0.27732664 183.68074965 -0.27762848 C191.08331412 -0.27821242 198.48567839 -0.28666344 205.88819122 -0.31562614 C212.8518872 -0.34274739 219.815181 -0.34402165 226.77890968 -0.3279705 C229.33223903 -0.32615459 231.88559108 -0.33285943 234.43887138 -0.34878922 C237.93001218 -0.36923932 241.41976506 -0.35870206 244.91088867 -0.34057617 C245.91655073 -0.35377614 246.9222128 -0.36697611 247.95834947 -0.38057607 C255.50480541 -0.29134788 262.03179666 1.64442188 267.82909513 6.68142134 C274.72240314 14.35892266 274.65167128 22.13601544 274.6293335 31.94529724 C274.63668166 33.3291085 274.64527006 34.71291364 274.65499878 36.09671021 C274.67714747 39.84070404 274.68014875 43.58447734 274.67825127 47.32852769 C274.67813123 50.46195495 274.68670893 53.59533605 274.69502878 56.72875041 C274.71423975 64.12648509 274.71715545 71.52410695 274.71038818 78.92185974 C274.70375219 86.53426827 274.72659892 94.14619166 274.76370192 101.75850183 C274.79447056 108.31079027 274.80575112 114.86292325 274.8018651 121.41528243 C274.79980461 125.32133371 274.80516734 129.22700751 274.82975769 133.13298988 C274.85214091 136.80962864 274.85005255 140.4854831 274.82983017 144.16212654 C274.82483452 146.14018136 274.84435593 148.11825158 274.86483765 150.09620667 C274.79270979 157.80808727 273.78714132 163.90545463 269.20941162 170.27415466 C261.85256292 177.23194738 255.42118785 178.57176503 245.53907776 178.54830933 C244.45155281 178.553546 243.36402787 178.55878268 242.24354762 178.56417805 C238.59256488 178.57920224 234.941722 178.57988375 231.29071045 178.58055115 C228.67568728 178.58817106 226.06066636 178.59659826 223.44564819 178.60577393 C216.33599604 178.62860975 209.22637377 178.63654315 202.11668992 178.64160037 C197.67506037 178.64485934 193.23343946 178.65138308 188.7918148 178.65860176 C176.4876944 178.67816662 164.18358203 178.69457124 151.87944508 178.69747829 C151.0922841 178.69766586 150.30512312 178.69785343 149.49410878 178.69804669 C147.89842141 178.69841293 146.30273404 178.69877663 144.70704667 178.6991378 C143.9149731 178.69932061 143.12289953 178.69950342 142.30682373 178.69969177 C141.5137802 178.69987232 140.72073667 178.70005287 139.90366151 178.70023889 C127.05843839 178.70377924 114.21338305 178.73079335 101.3682181 178.76818966 C88.17171773 178.80630046 74.97530054 178.82563598 61.77874392 178.82593781 C54.37281114 178.82652179 46.96707846 178.83497534 39.56119728 178.86393547 C32.59341075 178.8910576 25.62602616 178.89233057 18.65820694 178.87627983 C16.10326588 178.8744639 13.54830215 178.88116886 10.99341011 178.89709854 C7.50002657 178.91754861 4.00803006 178.90701135 0.5146637 178.8888855 C-0.49168049 178.90208547 -1.49802467 178.91528543 -2.53486413 178.9288854 C-10.28558837 178.83730165 -16.92467406 176.81595917 -22.73861474 171.48944658 C-29.30198375 164.49971237 -29.05551151 157.0372116 -28.91558838 147.89915466 C-28.90656494 146.78153748 -28.8975415 145.66392029 -28.88824463 144.51243591 C-28.86477184 141.76612004 -28.83193566 139.02024994 -28.79058838 136.27415466 C-30.25081421 136.29772034 -30.25081421 136.29772034 -31.74053955 136.32176208 C-35.36529205 136.37621705 -38.99000864 136.41056092 -42.61505127 136.43894958 C-44.18151945 136.45400089 -45.74794574 136.47444673 -47.31427002 136.50047302 C-49.57080444 136.53701899 -51.82677991 136.55391727 -54.08355713 136.56712341 C-54.77958542 136.58260727 -55.47561371 136.59809113 -56.19273376 136.61404419 C-60.58726578 136.61555223 -63.25836042 135.89545489 -66.79058838 133.27415466 C-68.81297023 131.25177281 -67.9478227 127.0892224 -67.95172119 124.31370544 C-67.9566861 123.47957123 -67.961651 122.64543701 -67.96676636 121.786026 C-67.98142682 119.01383147 -67.98819647 116.24169416 -67.99371338 113.46946716 C-67.99946171 111.54994199 -68.00521948 109.63041684 -68.01098633 107.71089172 C-68.02150743 103.6807071 -68.0273428 99.6505425 -68.03082275 95.62034607 C-68.03630931 90.44936865 -68.06033611 85.27865433 -68.08879471 80.10775948 C-68.10739419 76.14099855 -68.11262525 72.17430132 -68.11415863 68.20750046 C-68.11719187 66.30086199 -68.12524286 64.39422481 -68.13834381 62.48762894 C-68.15534806 59.82267858 -68.15353795 57.15837513 -68.14703369 54.49339294 C-68.15624847 53.7015863 -68.16546326 52.90977966 -68.17495728 52.09397888 C-68.13400878 46.75371764 -68.13400878 46.75371764 -66.39331055 44.32295227 C-62.70073507 41.90658566 -59.44222223 42.14634614 -55.15777588 42.17649841 C-54.03002243 42.17862083 -54.03002243 42.17862083 -52.87948608 42.18078613 C-50.47481328 42.18639001 -48.07023311 42.1989431 -45.66558838 42.21165466 C-44.03668347 42.21666917 -42.40777711 42.22123216 -40.77886963 42.22532654 C-36.78274011 42.23636069 -32.78667996 42.25362788 -28.79058838 42.27415466 C-28.81153564 41.55872498 -28.83248291 40.84329529 -28.85406494 40.10618591 C-28.93779671 36.82898814 -28.98942889 33.55201625 -29.04058838 30.27415466 C-29.074104 29.1488031 -29.10761963 28.02345154 -29.14215088 26.86399841 C-29.23755942 18.70656833 -28.22509212 13.26485334 -22.86090088 7.03196716 C-22.21894775 6.49313904 -21.57699463 5.95431091 -20.91558838 5.39915466 C-19.96039307 4.56770935 -19.96039307 4.56770935 -18.98590088 3.71946716 C-13.00738814 -0.21656435 -6.89733262 -0.01641818 0 0 Z " fill="#B2B2B2" transform="translate(209.79058837890625,52.72584533691406)"/>
<path d="M0 0 C13.84343485 4.8254575 27.28594283 8.92050949 41.77294922 11.26074219 C44.38318368 11.69063127 46.98738438 12.14036755 49.58886719 12.62060547 C50.40863037 12.76892822 51.22839355 12.91725098 52.07299805 13.07006836 C54.12402344 13.64794922 54.12402344 13.64794922 56.12402344 15.64794922 C56.38408566 17.74578285 56.38408566 17.74578285 56.3981781 20.39028931 C56.40815323 21.39117584 56.41812836 22.39206238 56.42840576 23.42327881 C56.42907043 24.52560852 56.42973511 25.62793823 56.43041992 26.76367188 C56.43874344 27.92154205 56.44706696 29.07941223 56.4556427 30.27236938 C56.47983324 34.11895059 56.48852737 37.96536239 56.49511719 41.81201172 C56.50181476 43.80624758 56.50851446 45.80048346 56.5155521 47.79471815 C56.53704515 54.0727878 56.54636068 60.35080336 56.54956055 66.62890625 C56.55318885 73.094396 56.58302732 79.55940899 56.62496513 86.02475321 C56.65973452 91.58072769 56.67511019 97.13654485 56.67580658 102.69262731 C56.67659771 106.00855477 56.68764217 109.32388951 56.71380424 112.63972855 C56.74070654 116.34552442 56.73589406 120.05001518 56.72338867 123.75585938 C56.74564011 125.39113586 56.74564011 125.39113586 56.76834106 127.05944824 C56.69467132 134.739111 54.93662054 139.53155895 49.71669674 145.16741371 C43.03550782 151.33812541 35.3121309 150.8926427 26.78417969 150.78076172 C24.56477726 150.78156815 22.34537488 150.78422927 20.12597656 150.78857422 C16.65176959 150.78660903 13.17924566 150.77285326 9.70532227 150.72705078 C6.33476633 150.68789436 2.96734417 150.69915363 -0.40332031 150.71826172 C-1.94897926 150.6797258 -1.94897926 150.6797258 -3.52586365 150.64041138 C-9.24859591 150.71626536 -12.23164023 151.38295768 -16.31958008 155.53027344 C-16.90780045 156.23175507 -17.49602081 156.93323669 -18.10206604 157.65597534 C-23.94042968 164.21203761 -33.71947254 167.15108279 -42.20019531 167.96826172 C-53.98334947 168.35714469 -64.0937828 165.71322921 -72.87597656 157.64794922 C-74.1425272 156.13276278 -74.1425272 156.13276278 -75.43466473 154.58696651 C-78.60331805 151.43615343 -80.95261338 150.93130179 -85.34041768 150.8315025 C-86.16891923 150.84284047 -86.99742078 150.85417844 -87.85102844 150.86585999 C-89.19064008 150.84864502 -89.19064008 150.84864502 -90.55731457 150.83108228 C-93.54469206 150.80016795 -96.53033145 150.8120512 -99.51782227 150.82397461 C-101.66172891 150.81093052 -103.80562155 150.79538015 -105.94949341 150.7775116 C-111.76996225 150.73733211 -117.58984682 150.7356065 -123.41042733 150.74320149 C-128.27122997 150.74641055 -133.13191438 150.73176057 -137.9926917 150.71738523 C-149.46225874 150.68409543 -160.93153106 150.68278909 -172.40112305 150.70092773 C-184.22802224 150.71904414 -196.05385045 150.68212456 -207.8805669 150.61821753 C-218.03877562 150.56534766 -228.19664371 150.54736889 -238.35498494 150.55713075 C-244.4202496 150.5625673 -250.48475058 150.55468375 -256.54989052 150.51298714 C-262.25577493 150.47522874 -267.95999247 150.4811008 -273.66585159 150.5202198 C-275.75679401 150.52731174 -277.84785398 150.51913107 -279.93866158 150.49435043 C-290.93867812 150.02428614 -290.93867812 150.02428614 -300.98863792 153.62286186 C-303.38323839 155.93410984 -303.38323839 155.93410984 -305.14607525 158.43160152 C-309.4631128 163.96258538 -317.31131265 166.03668659 -323.87597656 167.64794922 C-336.10266649 168.8072605 -347.20237231 167.2044823 -356.96191406 159.40576172 C-358.87597656 157.64794922 -358.87597656 157.64794922 -361.41601562 154.58178711 C-364.65454485 151.35455217 -367.12322508 150.94836587 -371.60165405 150.89265442 C-372.44241486 150.91115952 -373.28317566 150.92966461 -374.14941406 150.94873047 C-375.03198883 150.94213913 -375.9145636 150.93554779 -376.82388306 150.92875671 C-379.63369005 150.911331 -382.44127627 150.93320101 -385.25097656 150.96044922 C-388.05309178 150.97179479 -390.85454173 150.97431027 -393.65664673 150.96000671 C-395.39524003 150.95269222 -397.13398921 150.96057392 -398.87240601 150.98640442 C-405.85550752 150.98267249 -412.28558533 149.60734585 -417.68847656 144.83544922 C-418.23117187 144.37525391 -418.77386719 143.91505859 -419.33300781 143.44091797 C-423.08744292 139.07816933 -424.2521922 134.88356118 -424.2800293 129.21875 C-424.29271347 127.96369659 -424.30539764 126.70864319 -424.31846619 125.41555786 C-424.31641423 124.05812413 -424.31342578 122.70069153 -424.30957031 121.34326172 C-424.31413735 119.93610381 -424.31944447 118.52894814 -424.32545471 117.12179565 C-424.3343679 114.17810993 -424.33198422 111.23469574 -424.32202148 108.29101562 C-424.3105462 104.53626122 -424.33072895 100.78244934 -424.35993862 97.02781868 C-424.37837184 94.1228143 -424.37799393 91.21803271 -424.3723011 88.31298447 C-424.37214869 86.92962194 -424.37812644 85.54624353 -424.39059258 84.16293716 C-424.46396797 74.68516625 -423.77171575 68.61965447 -417.82519531 61.03076172 C-389.16694857 32.42201108 -346.7850615 22.76879757 -308.74902344 13.51513672 C-289.01017062 8.67494733 -269.91204966 2.42680723 -251.02194214 -5.05493164 C-223.14394867 -16.05070636 -194.83377842 -24.55164756 -164.87597656 -27.35205078 C-163.71066406 -27.46291016 -162.54535156 -27.57376953 -161.34472656 -27.68798828 C-105.41989333 -32.18629008 -52.2379587 -18.2359 0 0 Z M-247.66113281 8.02685547 C-250.73209459 9.23555506 -253.80365731 10.44270423 -256.87597656 11.64794922 C-257.58430634 11.92628601 -258.29263611 12.2046228 -259.02243042 12.49139404 C-268.32948494 16.13019128 -277.62090929 19.15907081 -287.31347656 21.64794922 C-288.61797142 21.9898906 -289.92233073 22.33234949 -291.2265625 22.67529297 C-299.33033629 24.79377041 -307.46859395 26.74706054 -315.62597656 28.64794922 C-338.3094752 33.97989074 -360.08262945 41.08773248 -380.87597656 51.64794922 C-380.87597656 51.97794922 -380.87597656 52.30794922 -380.87597656 52.64794922 C-379.78285156 52.73044922 -378.68972656 52.81294922 -377.56347656 52.89794922 C-373.87597656 53.64794922 -373.87597656 53.64794922 -371.93847656 55.14794922 C-369.58822601 60.67795053 -370.42838101 66.0908099 -372.37597656 71.64794922 C-377.00626158 81.94634176 -384.54409317 87.86806418 -394.96777344 92.01123047 C-400.14345337 93.73822295 -405.45733461 94.15031884 -410.87597656 94.64794922 C-410.87597656 99.92794922 -410.87597656 105.20794922 -410.87597656 110.64794922 C-409.07 110.72142578 -409.07 110.72142578 -407.22753906 110.79638672 C-405.65199458 110.87141265 -404.0764749 110.94696055 -402.50097656 111.02294922 C-401.70691406 111.05388672 -400.91285156 111.08482422 -400.09472656 111.11669922 C-394.10253906 111.42138672 -394.10253906 111.42138672 -391.87597656 113.64794922 C-391.62597656 117.14794922 -391.62597656 117.14794922 -391.87597656 120.64794922 C-394.89690871 123.66888136 -398.43969728 123.11471756 -402.50097656 123.27294922 C-403.30277344 123.31162109 -404.10457031 123.35029297 -404.93066406 123.39013672 C-406.91205212 123.48448853 -408.89398301 123.56731137 -410.87597656 123.64794922 C-410.91335938 124.90736328 -410.95074219 126.16677734 -410.98925781 127.46435547 C-411.01028564 128.17277588 -411.03131348 128.88119629 -411.05297852 129.61108398 C-410.77069571 132.85947769 -409.18296295 134.47279063 -406.87597656 136.64794922 C-403.30670271 137.83770717 -400.07650684 137.77273077 -396.36425781 137.74560547 C-395.63603317 137.74419052 -394.90780853 137.74277557 -394.15751648 137.74131775 C-391.83446117 137.73572581 -389.51150268 137.72317484 -387.18847656 137.71044922 C-385.61230608 137.70543317 -384.03613409 137.70087045 -382.45996094 137.69677734 C-378.59859558 137.68575902 -374.73730248 137.66849996 -370.87597656 137.64794922 C-370.93398438 136.34341797 -370.99199219 135.03888672 -371.05175781 133.69482422 C-371.47089776 120.22302154 -370.34631902 109.93003532 -360.87597656 99.64794922 C-360.87597656 98.98794922 -360.87597656 98.32794922 -360.87597656 97.64794922 C-360.36035156 97.42107422 -359.84472656 97.19419922 -359.31347656 96.96044922 C-356.6804452 95.63955646 -356.6804452 95.63955646 -353.93847656 93.27294922 C-346.03344224 87.56845978 -335.46296717 85.31528953 -325.87597656 86.64794922 C-313.79430341 89.41569416 -304.00232831 95.4076916 -296.87597656 105.64794922 C-290.72140834 116.35869052 -291.87597656 124.66522029 -291.87597656 137.64794922 C-223.56597656 137.64794922 -155.25597656 137.64794922 -84.87597656 137.64794922 C-84.87597656 131.04794922 -84.87597656 124.44794922 -84.87597656 117.64794922 C-83.38060863 112.89795697 -82.31242035 109.7388482 -79.87597656 105.64794922 C-79.4415625 104.90416016 -79.00714844 104.16037109 -78.55957031 103.39404297 C-73.3279002 95.53908528 -64.94055144 90.07392045 -55.87597656 87.64794922 C-43.30803686 85.93918518 -31.61459607 87.13141903 -21.14160156 94.59716797 C-13.4083689 100.96907713 -8.4951859 108.98927304 -5.87597656 118.64794922 C-5.64242479 121.9447368 -5.68631204 125.22008459 -5.75097656 128.52294922 C-5.76451172 129.84166016 -5.76451172 129.84166016 -5.77832031 131.18701172 C-5.8017308 133.34077632 -5.83759647 135.49439936 -5.87597656 137.64794922 C0.15628283 137.74694483 6.18806771 137.81947829 12.22094727 137.86767578 C14.27246336 137.88777121 16.32392233 137.91505246 18.37524414 137.94970703 C21.32680369 137.99831591 24.27760492 138.02093874 27.22949219 138.03857422 C28.14425827 138.05921936 29.05902435 138.0798645 30.00151062 138.10113525 C34.24285059 138.10262438 36.50456392 138.03297719 40.17993164 135.74853516 C43.18121021 132.50566176 43.24742693 130.69867728 43.23754883 126.37207031 C43.23743553 124.72058487 43.23743553 124.72058487 43.23731995 123.03573608 C43.23215866 121.84300079 43.22699738 120.6502655 43.22167969 119.42138672 C43.22026474 118.20343414 43.21884979 116.98548157 43.21739197 115.73062134 C43.21177982 111.82803932 43.19922523 107.92551399 43.18652344 104.02294922 C43.18151 101.38232505 43.17694683 98.74169998 43.17285156 96.10107422 C43.16180644 89.61667977 43.14505645 83.13231854 43.12402344 76.64794922 C42.14006592 76.62289307 41.1561084 76.59783691 40.14233398 76.57202148 C36.49132287 76.47784101 32.84049728 76.37764632 29.18969727 76.27563477 C27.60966329 76.23232617 26.02958375 76.19064816 24.44946289 76.15063477 C22.17808296 76.09283339 19.90693155 76.02916762 17.63574219 75.96435547 C16.92939133 75.94764297 16.22304047 75.93093048 15.49528503 75.91371155 C12.45754104 75.82197452 10.02779286 75.61587236 7.12402344 74.64794922 C5.68055838 66.47411097 6.14137797 59.7703186 10.38183594 52.48779297 C17.45261495 42.4611965 26.16398626 36.63290805 38.18652344 34.39794922 C39.83055266 34.13634786 41.47585791 33.88208114 43.12402344 33.64794922 C43.12402344 30.67794922 43.12402344 27.70794922 43.12402344 24.64794922 C42.3828125 24.54998047 41.64160156 24.45201172 40.87792969 24.35107422 C25.32347441 22.14260811 10.57873007 18.04406348 -4.25097656 12.96044922 C-5.82409651 12.42827464 -7.3975065 11.8969567 -8.97119141 11.36645508 C-12.87939868 10.04753829 -16.78499465 8.72109724 -20.68969727 7.3918457 C-40.63080333 0.60674797 -60.24675325 -5.97667654 -80.93847656 -10.03955078 C-81.96658447 -10.24225586 -82.99469238 -10.44496094 -84.05395508 -10.65380859 C-100.82253866 -13.81068188 -117.12581989 -14.72498712 -134.17382812 -14.72265625 C-137.7104618 -14.72700101 -141.24581448 -14.76336534 -144.78222656 -14.80126953 C-181.62292889 -14.98319458 -213.79368341 -5.31921109 -247.66113281 8.02685547 Z " fill="#020001" transform="translate(439.8759765625,291.35205078125)"/>
<path d="M0 0 C1.26165248 -0.00935994 1.26165248 -0.00935994 2.5487929 -0.01890898 C5.37180672 -0.03488463 8.19396256 -0.02221693 11.01698303 -0.00964355 C13.03899643 -0.01506268 15.06100587 -0.02218416 17.08300781 -0.03088379 C22.57889731 -0.04914605 28.07448703 -0.04203725 33.57038188 -0.02936745 C39.31761033 -0.01925346 45.0648128 -0.0286288 50.81204224 -0.03491211 C60.46536373 -0.04219376 70.11856291 -0.03258779 79.77186584 -0.0135498 C90.93615336 0.0082137 102.10014862 0.00117333 113.26442903 -0.02085543 C122.84415183 -0.03900197 132.4237866 -0.04157119 142.00352103 -0.03110075 C147.72750327 -0.02486095 153.45134813 -0.0240435 159.17532158 -0.0372467 C164.55735654 -0.04879344 169.93901449 -0.04080074 175.32100868 -0.01766968 C177.29751331 -0.01237606 179.27404962 -0.01390748 181.25054169 -0.02272034 C183.94651029 -0.03363375 186.64126705 -0.01996324 189.3371582 0 C190.12140087 -0.00892289 190.90564353 -0.01784577 191.71365112 -0.02703905 C195.35550419 0.02535346 197.56576202 0.40858824 200.71707058 2.29105473 C202.8490145 4.63659452 203.35836293 5.39430033 203.36698914 8.48594666 C203.38108826 9.26673584 203.39518738 10.04752502 203.40971375 10.85197449 C203.39959259 11.69935684 203.38947144 12.5467392 203.37904358 13.4197998 C203.38780518 14.31943451 203.39656677 15.21906921 203.40559387 16.14596558 C203.42760119 19.11997709 203.4130291 22.09250167 203.39613342 25.06652832 C203.39950147 27.13391912 203.40435398 29.201308 203.41062927 31.26869202 C203.41800267 35.60229335 203.4072809 39.93537945 203.38392639 44.2689209 C203.35545648 49.82217964 203.37182879 55.37422927 203.40178871 60.9274435 C203.41986409 65.19718012 203.41410217 69.46663053 203.40114975 73.73637581 C203.39781549 75.7836935 203.40190348 77.83103722 203.41354752 79.87832451 C203.42625795 82.74180687 203.40687558 85.60333768 203.37904358 88.4666748 C203.38916473 89.31203293 203.39928589 90.15739105 203.40971375 91.02836609 C203.39561462 91.8119751 203.3815155 92.59558411 203.36698914 93.40293884 C203.36510401 94.07894858 203.36321888 94.75495832 203.36127663 95.45145321 C202.31225475 98.88005204 200.55063468 100.35009605 197.73207092 102.50793457 C194.75574449 103.00038883 192.35336198 103.1853619 189.3818512 103.14285278 C188.54397867 103.15065274 187.70610614 103.15845269 186.84284353 103.16648901 C184.03659121 103.18642531 181.23169256 103.17063835 178.4254303 103.15490723 C176.41311857 103.16168262 174.40081305 103.17058531 172.38851929 103.18145752 C166.92362349 103.20426655 161.45919925 103.19540772 155.99429512 103.17956209 C150.27776433 103.16691151 144.56127418 103.17864087 138.84474182 103.18649292 C129.24444828 103.19559191 119.644347 103.18359491 110.04408264 103.15979004 C98.94163337 103.13257842 87.83964317 103.14139239 76.73720503 103.16892207 C67.20840253 103.19160491 57.6797383 103.19481721 48.15091753 103.18172872 C42.45822149 103.17392973 36.76574129 103.17290509 31.07305908 103.18941116 C25.72130001 103.20384453 20.37013335 103.19385452 15.01843834 103.16493988 C13.0532244 103.15832306 11.08796069 103.16023687 9.12276649 103.1712532 C6.4419327 103.18489677 3.76300276 103.16780817 1.08229065 103.14285278 C0.30262105 103.15400639 -0.47704854 103.16516 -1.28034449 103.1766516 C-5.22101114 103.10538446 -7.08641726 102.64687695 -10.25055599 100.22481441 C-12.21300351 97.5819051 -12.8933468 96.59829462 -12.89611816 93.40293884 C-12.90877213 92.61932983 -12.92142609 91.83572083 -12.9344635 91.02836609 C-12.9227713 90.18300797 -12.9110791 89.33764984 -12.89903259 88.4666748 C-12.90976555 87.11459427 -12.90976555 87.11459427 -12.92071533 85.73519897 C-12.93759614 82.76179004 -12.91820483 79.78988998 -12.89683533 76.81652832 C-12.89766401 74.74817276 -12.90012336 72.67981727 -12.90414429 70.61146545 C-12.90700178 66.27963404 -12.89230424 61.94831983 -12.86485291 57.61657715 C-12.83074919 52.0622524 -12.83679604 46.5088512 -12.85551548 40.95448208 C-12.86607956 36.68480216 -12.85715334 32.41533746 -12.84213066 28.14567757 C-12.83694549 26.09754131 -12.8374347 24.04938262 -12.84367561 22.00124931 C-12.84912143 19.14027364 -12.82877372 16.28062436 -12.80137634 13.4197998 C-12.80790222 12.57241745 -12.8144281 11.7250351 -12.82115173 10.85197449 C-12.80842728 10.0711853 -12.79570282 9.29039612 -12.78259277 8.48594666 C-12.77978585 7.81031394 -12.77697893 7.13468122 -12.77408695 6.43857479 C-11.06396617 -0.08434647 -5.75099214 -0.06524754 0 0 Z " fill="#030302" transform="translate(237.26792907714844,90.4920654296875)"/>
<path d="M0 0 C1.08837937 -0.00523668 2.17675874 -0.01047336 3.29811931 -0.01586872 C6.94599609 -0.03087336 10.59373266 -0.03157399 14.24163818 -0.03224182 C16.85680885 -0.03986298 19.47197727 -0.0482904 22.08714294 -0.0574646 C29.1926038 -0.08028484 36.29803473 -0.08823193 43.40352726 -0.09329104 C47.84298458 -0.09655139 52.28243325 -0.1030759 56.72188568 -0.11029243 C69.02175746 -0.12985414 81.32162122 -0.14626098 93.62150955 -0.14916897 C94.40813541 -0.14935654 95.19476127 -0.14954411 96.00522427 -0.14973736 C97.59979264 -0.1501036 99.19436101 -0.1504673 100.78892937 -0.15082847 C101.58043754 -0.15101128 102.3719457 -0.1511941 103.18743896 -0.15138245 C104.37615601 -0.15165327 104.37615601 -0.15165327 105.58888754 -0.15192956 C118.42758057 -0.15547063 131.2661058 -0.18249061 144.10474065 -0.21988034 C157.29675263 -0.25799071 170.48868141 -0.27732664 183.68074965 -0.27762848 C191.08331412 -0.27821242 198.48567839 -0.28666344 205.88819122 -0.31562614 C212.8518872 -0.34274739 219.815181 -0.34402165 226.77890968 -0.3279705 C229.33223903 -0.32615459 231.88559108 -0.33285943 234.43887138 -0.34878922 C237.93001218 -0.36923932 241.41976506 -0.35870206 244.91088867 -0.34057617 C245.91655073 -0.35377614 246.9222128 -0.36697611 247.95834947 -0.38057607 C255.50480541 -0.29134788 262.03179666 1.64442188 267.82909513 6.68142134 C274.72240314 14.35892266 274.65167128 22.13601544 274.6293335 31.94529724 C274.63668166 33.3291085 274.64527006 34.71291364 274.65499878 36.09671021 C274.67714747 39.84070404 274.68014875 43.58447734 274.67825127 47.32852769 C274.67813123 50.46195495 274.68670893 53.59533605 274.69502878 56.72875041 C274.71423975 64.12648509 274.71715545 71.52410695 274.71038818 78.92185974 C274.70375219 86.53426827 274.72659892 94.14619166 274.76370192 101.75850183 C274.79447056 108.31079027 274.80575112 114.86292325 274.8018651 121.41528243 C274.79980461 125.32133371 274.80516734 129.22700751 274.82975769 133.13298988 C274.85214091 136.80962864 274.85005255 140.4854831 274.82983017 144.16212654 C274.82483452 146.14018136 274.84435593 148.11825158 274.86483765 150.09620667 C274.79270979 157.80808727 273.78714132 163.90545463 269.20941162 170.27415466 C261.85256292 177.23194738 255.42118785 178.57176503 245.53907776 178.54830933 C244.45155281 178.553546 243.36402787 178.55878268 242.24354762 178.56417805 C238.59256488 178.57920224 234.941722 178.57988375 231.29071045 178.58055115 C228.67568728 178.58817106 226.06066636 178.59659826 223.44564819 178.60577393 C216.33599604 178.62860975 209.22637377 178.63654315 202.11668992 178.64160037 C197.67506037 178.64485934 193.23343946 178.65138308 188.7918148 178.65860176 C176.4876944 178.67816662 164.18358203 178.69457124 151.87944508 178.69747829 C151.0922841 178.69766586 150.30512312 178.69785343 149.49410878 178.69804669 C147.89842141 178.69841293 146.30273404 178.69877663 144.70704667 178.6991378 C143.9149731 178.69932061 143.12289953 178.69950342 142.30682373 178.69969177 C141.5137802 178.69987232 140.72073667 178.70005287 139.90366151 178.70023889 C127.05843839 178.70377924 114.21338305 178.73079335 101.3682181 178.76818966 C88.17171773 178.80630046 74.97530054 178.82563598 61.77874392 178.82593781 C54.37281114 178.82652179 46.96707846 178.83497534 39.56119728 178.86393547 C32.59341075 178.8910576 25.62602616 178.89233057 18.65820694 178.87627983 C16.10326588 178.8744639 13.54830215 178.88116886 10.99341011 178.89709854 C7.50002657 178.91754861 4.00803006 178.90701135 0.5146637 178.8888855 C-0.49168049 178.90208547 -1.49802467 178.91528543 -2.53486413 178.9288854 C-10.28558837 178.83730165 -16.92467406 176.81595917 -22.73861474 171.48944658 C-29.30198375 164.49971237 -29.05551151 157.0372116 -28.91558838 147.89915466 C-28.90656494 146.78153748 -28.8975415 145.66392029 -28.88824463 144.51243591 C-28.86477184 141.76612004 -28.83193566 139.02024994 -28.79058838 136.27415466 C-30.25081421 136.29772034 -30.25081421 136.29772034 -31.74053955 136.32176208 C-35.36529205 136.37621705 -38.99000864 136.41056092 -42.61505127 136.43894958 C-44.18151945 136.45400089 -45.74794574 136.47444673 -47.31427002 136.50047302 C-49.57080444 136.53701899 -51.82677991 136.55391727 -54.08355713 136.56712341 C-54.77958542 136.58260727 -55.47561371 136.59809113 -56.19273376 136.61404419 C-60.58726578 136.61555223 -63.25836042 135.89545489 -66.79058838 133.27415466 C-68.81297023 131.25177281 -67.9478227 127.0892224 -67.95172119 124.31370544 C-67.9566861 123.47957123 -67.961651 122.64543701 -67.96676636 121.786026 C-67.98142682 119.01383147 -67.98819647 116.24169416 -67.99371338 113.46946716 C-67.99946171 111.54994199 -68.00521948 109.63041684 -68.01098633 107.71089172 C-68.02150743 103.6807071 -68.0273428 99.6505425 -68.03082275 95.62034607 C-68.03630931 90.44936865 -68.06033611 85.27865433 -68.08879471 80.10775948 C-68.10739419 76.14099855 -68.11262525 72.17430132 -68.11415863 68.20750046 C-68.11719187 66.30086199 -68.12524286 64.39422481 -68.13834381 62.48762894 C-68.15534806 59.82267858 -68.15353795 57.15837513 -68.14703369 54.49339294 C-68.15624847 53.7015863 -68.16546326 52.90977966 -68.17495728 52.09397888 C-68.13400878 46.75371764 -68.13400878 46.75371764 -66.39331055 44.32295227 C-62.70073507 41.90658566 -59.44222223 42.14634614 -55.15777588 42.17649841 C-54.03002243 42.17862083 -54.03002243 42.17862083 -52.87948608 42.18078613 C-50.47481328 42.18639001 -48.07023311 42.1989431 -45.66558838 42.21165466 C-44.03668347 42.21666917 -42.40777711 42.22123216 -40.77886963 42.22532654 C-36.78274011 42.23636069 -32.78667996 42.25362788 -28.79058838 42.27415466 C-28.81153564 41.55872498 -28.83248291 40.84329529 -28.85406494 40.10618591 C-28.93779671 36.82898814 -28.98942889 33.55201625 -29.04058838 30.27415466 C-29.074104 29.1488031 -29.10761963 28.02345154 -29.14215088 26.86399841 C-29.23755942 18.70656833 -28.22509212 13.26485334 -22.86090088 7.03196716 C-22.21894775 6.49313904 -21.57699463 5.95431091 -20.91558838 5.39915466 C-19.96039307 4.56770935 -19.96039307 4.56770935 -18.98590088 3.71946716 C-13.00738814 -0.21656435 -6.89733262 -0.01641818 0 0 Z M-14.79058838 18.27415466 C-16.0892161 20.87141011 -15.92533323 22.76571302 -15.9377594 25.67533875 C-15.9449147 26.82215622 -15.95207001 27.96897369 -15.95944214 29.15054321 C-15.96213104 30.41497757 -15.96481995 31.67941193 -15.96759033 32.98216248 C-15.9738544 34.3224607 -15.98050115 35.66275718 -15.98750305 37.00305176 C-16.00491946 40.64990805 -16.01546684 44.29675122 -16.02370858 47.9436388 C-16.02885807 50.22216583 -16.03493387 52.50068879 -16.04121971 54.77921295 C-16.06027478 61.90832823 -16.07450446 69.03743314 -16.08283168 76.16656899 C-16.0926021 84.3954841 -16.11891496 92.62413006 -16.15933257 100.85295033 C-16.18949945 107.21311904 -16.20430114 113.57321064 -16.20761269 119.93344951 C-16.20996281 123.73210887 -16.21891759 127.53048082 -16.24407387 131.32906342 C-16.26736954 134.90454816 -16.27158218 138.47955659 -16.26131248 142.05509758 C-16.26058172 143.98865717 -16.27966321 145.92219264 -16.29937744 147.85565186 C-16.29421747 156.39598366 -16.29421747 156.39598366 -11.79058838 163.27415466 C-8.84644139 165.06442848 -6.66443617 165.5253 -3.23902321 165.53142357 C-1.86887784 165.54109691 -1.86887784 165.54109691 -0.47105277 165.55096567 C0.52874066 165.54786846 1.52853408 165.54477126 2.55862427 165.5415802 C3.62361574 165.54611131 4.68860721 165.55064243 5.78587115 165.55531085 C9.36638536 165.56800485 12.94674844 165.56633124 16.52728271 165.56468201 C19.08953549 165.57066411 21.65178645 165.57746891 24.21403503 165.58503723 C30.45864573 165.60089663 36.70320076 165.607147 42.94782971 165.60826199 C48.02348969 165.6092122 53.09913721 165.61332113 58.17479324 165.61966324 C72.56386791 165.63727681 86.95291274 165.6465019 101.34199826 165.64500229 C102.5056501 165.64488242 102.5056501 165.64488242 103.69281006 165.64476013 C104.46952465 165.64467837 105.24623923 165.64459661 106.04649062 165.64451237 C118.63579461 165.64369937 131.22497898 165.66284012 143.81424837 165.69103687 C156.73949435 165.71975779 169.66468198 165.73357761 182.58996069 165.73184931 C189.84707733 165.73118515 197.10406856 165.73668893 204.36115646 165.75820541 C211.18525205 165.7783084 218.0090386 165.77775166 224.83316231 165.76317215 C227.33978855 165.76107583 229.84643114 165.76583362 232.35302925 165.77789307 C235.77107787 165.79327432 239.18820367 165.78408356 242.60623169 165.76863098 C244.09922966 165.78406167 244.09922966 165.78406167 245.6223892 165.79980409 C251.28902819 165.74306902 254.81646467 165.23320216 259.20941162 161.27415466 C261.4457206 158.15093952 261.46416323 155.40748138 261.47683716 151.62573242 C261.48536713 150.47472046 261.49389709 149.3237085 261.50268555 148.13781738 C261.50177917 146.87900253 261.5008728 145.62018768 261.49993896 144.32322693 C261.50592483 142.98100918 261.51273051 141.63879487 261.52029419 140.29658508 C261.53795396 136.65402198 261.54264951 133.01155286 261.54392576 129.36895108 C261.54534775 127.09275858 261.5496182 124.81658994 261.5549202 122.54040337 C261.57341923 114.59836689 261.58159082 106.65639752 261.58001709 98.71434021 C261.57881518 91.3127094 261.5999273 83.91136996 261.63150442 76.50981289 C261.65765737 70.15300486 261.66838483 63.79629207 261.66710627 57.43943065 C261.66659641 53.64364465 261.67229256 49.84811771 261.69346237 46.05238533 C261.71282895 42.48259974 261.71298063 38.91332078 261.69842911 35.3435173 C261.69534175 33.41099342 261.7120279 31.47846958 261.72930908 29.54602051 C261.7209201 28.39218872 261.71253113 27.23835693 261.70388794 26.04956055 C261.70497747 25.04907968 261.70606701 24.0485988 261.70718956 23.01780033 C261.06299003 19.46711015 259.71688868 17.83241404 257.20941162 15.27415466 C254.25942666 13.4829901 252.07339279 13.02255376 248.64222908 13.01409245 C247.72531544 13.00702685 246.8084018 12.99996126 245.86370289 12.99268156 C244.86001852 12.99509665 243.85633415 12.99751173 242.82223511 13 C241.75316008 12.99476332 240.68408506 12.98952664 239.58261383 12.98413128 C235.98828628 12.96908922 232.39410056 12.9684252 228.79974365 12.96775818 C226.22763833 12.96013958 223.65553529 12.95171261 221.08343506 12.9425354 C214.08762503 12.91968817 207.09184534 12.91176529 200.09600306 12.90670896 C195.72794677 12.90345201 191.3598993 12.8969296 186.99184799 12.88970757 C174.89792985 12.87014303 162.8040199 12.85373762 150.71008492 12.85083103 C149.93622062 12.85064346 149.16235633 12.85045589 148.36504161 12.85026264 C146.79623787 12.84989639 145.22743413 12.84953269 143.65863039 12.84917153 C142.49049805 12.84889731 142.49049805 12.84889731 141.29876709 12.84861755 C140.12920929 12.84834673 140.12920929 12.84834673 138.93602405 12.84807044 C126.29819607 12.84452776 113.66053838 12.81749898 101.02276947 12.78011966 C88.04780233 12.74205002 75.07291974 12.72267366 62.0978955 12.72237152 C54.81279941 12.72178669 47.52790653 12.71327834 40.2428627 12.68437386 C33.39247057 12.65731881 26.54248746 12.65594365 19.69206238 12.6720295 C17.17575581 12.67385028 14.65942648 12.66709692 12.1431694 12.65121078 C8.71181635 12.6308655 5.28188901 12.64123577 1.85055542 12.65942383 C0.85133249 12.64622386 -0.14789043 12.63302389 -1.17739284 12.61942393 C-7.48760405 12.69598878 -10.45644175 13.59805525 -14.79058838 18.27415466 Z " fill="#000000" transform="translate(209.79058837890625,52.72584533691406)"/>
<path d="M0 0 C2.80651179 0.61465672 5.61991381 1.19354499 8.43310547 1.77685547 C45.99057759 9.70439765 45.99057759 9.70439765 59.28076172 16.49951172 C60.59326172 19.87451172 60.59326172 19.87451172 60.28076172 23.49951172 C53.75307658 31.11514438 42.80895396 33.78955752 33.53076172 36.62451172 C32.35392822 36.9869397 32.35392822 36.9869397 31.15332031 37.35668945 C18.95095646 40.95337006 6.55659274 42.92861815 -6.09423828 44.06201172 C-6.75717896 44.12232574 -7.42011963 44.18263977 -8.10314941 44.24478149 C-12.30091158 44.62516424 -16.50014835 44.98409386 -20.70080566 45.33093262 C-22.60423726 45.48990686 -24.50698194 45.6570451 -26.40966797 45.82470703 C-66.09364157 49.23175301 -106.23892408 48.24585408 -145.96923828 46.12451172 C-147.17718048 46.06147858 -148.38512268 45.99844543 -149.62966919 45.9335022 C-153.04051172 45.75083125 -156.45019765 45.55443689 -159.85986328 45.35107422 C-160.86131882 45.29575027 -161.86277435 45.24042633 -162.89457703 45.1834259 C-169.44648031 44.76263875 -175.20063973 44.32147663 -180.65673828 40.37451172 C-183.0011101 37.10659948 -183.47716514 35.36048775 -183.19580078 31.42138672 C-182.34294793 27.98201291 -180.49787754 26.58349117 -177.71923828 24.49951172 C-172.63774596 21.66111492 -167.32978127 19.45571508 -161.87939453 17.44091797 C-161.15417099 17.16988754 -160.42894745 16.89885712 -159.68174744 16.61961365 C-158.15398719 16.05022162 -156.62537317 15.48311557 -155.09594727 14.91821289 C-152.81578792 14.07460926 -150.53989124 13.22021174 -148.26416016 12.36474609 C-100.39653752 -5.48375881 -50.37190514 -11.12562079 0 0 Z " fill="#040203" transform="translate(355.71923828125,290.50048828125)"/>
<path d="M0 0 C1.07181519 -0.00101212 1.07181519 -0.00101212 2.1652832 -0.00204468 C32.76863826 0.04329928 62.28870406 5.31152774 91.5 14.25 C82.44078449 20.28947701 67.58232017 20.42021244 56.90283203 21.91357422 C55.39541458 22.12463104 53.88848732 22.33925237 52.38232422 22.55908203 C32.21217052 25.4988011 11.85978729 25.40300075 -8.48046875 25.3828125 C-10.91514597 25.38348824 -13.34982313 25.38446049 -15.78450012 25.38571167 C-20.84274957 25.38717289 -25.90098117 25.38508333 -30.95922852 25.38037109 C-37.42247765 25.3746409 -43.88568555 25.3779835 -50.34893322 25.38394356 C-55.35820322 25.3875633 -60.36746348 25.38640466 -65.37673378 25.38381577 C-67.76043007 25.38315215 -70.14412726 25.38395499 -72.52782249 25.38629532 C-75.85475375 25.38884888 -79.18161859 25.38494478 -82.50854492 25.37939453 C-83.96202583 25.38243088 -83.96202583 25.38243088 -85.44487 25.38552856 C-91.51900375 25.3668578 -97.46839085 24.96733369 -103.5 24.25 C-99.48236297 20.23236297 -93.21559454 18.98253221 -87.9375 17.0625 C-87.26617035 16.81733643 -86.5948407 16.57217285 -85.90316772 16.31958008 C-57.60102111 6.02620903 -30.18628556 0.02596802 0 0 Z " fill="#B3E1F0" transform="translate(299.5,297.75)"/>
<path d="M0 0 C5.29741574 2.9771756 8.6730907 6.16726565 11.5625 11.5 C11.89894531 12.11617188 12.23539062 12.73234375 12.58203125 13.3671875 C15.95667125 20.79447736 15.67295476 29.3227969 12.875 36.875 C9.14096457 44.90766727 4.8938671 48.60806544 -3.109375 52.36328125 C-10.29975325 54.81914988 -18.59560002 54.76951183 -25.59765625 51.6015625 C-33.4920928 46.87495718 -37.57288845 41.09383464 -40.4375 32.5 C-41.15814117 22.49417446 -40.6773208 14.17029113 -34.25 6.1875 C-25.33287059 -3.31653177 -11.74592645 -5.41780858 0 0 Z " fill="#646464" transform="translate(407.4375,392.5)"/>
<path d="M0 0 C0.74548096 0.00572021 1.49096191 0.01144043 2.2590332 0.01733398 C9.58864707 0.25367046 15.0117763 2.19341949 20.515625 7.14453125 C27.03412152 14.15349717 28.27093144 20.58469085 28.03125 29.9921875 C27.26260701 37.83583984 24.44747012 43.71071696 18.625 49.03125 C11.00368939 54.80869514 3.13600057 56.50246287 -6.3125 55.5 C-14.63487245 52.87868777 -21.11670798 47.39181908 -25.75 40.0625 C-28.87970478 33.08189761 -28.52342818 23.67930965 -26.4296875 16.453125 C-23.00563165 8.97008904 -17.85071359 4.23324752 -10.26171875 1.11303711 C-6.85923982 0.04294385 -3.5450346 -0.03166283 0 0 Z " fill="#656565" transform="translate(108.3125,390.5)"/>
<path d="M0 0 C12.54 0 25.08 0 38 0 C38 16.83 38 33.66 38 51 C25.46 51 12.92 51 0 51 C0 34.17 0 17.34 0 0 Z " fill="#EB2E3E" transform="translate(389,129)"/>
<path d="M0 0 C12.54 0 25.08 0 38 0 C38 16.83 38 33.66 38 51 C25.46 51 12.92 51 0 51 C0 34.17 0 17.34 0 0 Z " fill="#3EA157" transform="translate(288,129)"/>
<path d="M0 0 C12.54 0 25.08 0 38 0 C38 16.83 38 33.66 38 51 C25.46 51 12.92 51 0 51 C0 34.17 0 17.34 0 0 Z " fill="#37894B" transform="translate(238,129)"/>
<path d="M0 0 C12.21 0 24.42 0 37 0 C37 16.83 37 33.66 37 51 C24.79 51 12.58 51 0 51 C0 34.17 0 17.34 0 0 Z " fill="#F8C544" transform="translate(339,129)"/>
<path d="M0 0 C8.58 0 17.16 0 26 0 C26 22.11 26 44.22 26 67 C17.42 67 8.84 67 0 67 C0 44.89 0 22.78 0 0 Z " fill="#7E7E7E" transform="translate(155,108)"/>
<path d="M0 0 C0.89865784 -0.00845947 1.79731567 -0.01691895 2.72320557 -0.02563477 C4.19839409 -0.01652573 4.19839409 -0.01652573 5.7033844 -0.00723267 C6.74102936 -0.01248962 7.77867432 -0.01774658 8.84776306 -0.02316284 C12.28619838 -0.0363929 15.72417268 -0.02761324 19.16261292 -0.01748657 C21.54771005 -0.01950659 23.93280659 -0.02241742 26.31790161 -0.02618408 C31.32064179 -0.03061165 36.32322145 -0.02416289 41.32594299 -0.01016235 C47.7433346 0.00692032 54.16034957 -0.0029034 60.57772732 -0.02087975 C65.50446415 -0.03171369 70.43111152 -0.02827282 75.35785103 -0.02049637 C77.72417813 -0.01849281 80.09051331 -0.02095906 82.45683098 -0.02793503 C85.763193 -0.03554185 89.06894303 -0.02395502 92.3752594 -0.00723267 C93.35669418 -0.01330536 94.33812897 -0.01937805 95.3493042 -0.02563477 C96.25078186 -0.01717529 97.15225952 -0.00871582 98.08105469 0 C98.86252585 0.00113108 99.64399702 0.00226215 100.44914913 0.00342751 C103.20371565 0.48601502 104.58782982 1.46713017 106.60401917 3.38095093 C107.18918487 6.81879942 107.11288048 8.59129353 105.21206665 11.54100037 C101.15268088 14.40485509 97.22803667 13.9304639 92.3752594 13.88265991 C90.81616348 13.89076439 90.81616348 13.89076439 89.22557068 13.89903259 C85.78762905 13.91154681 82.35052035 13.89501136 78.91261292 13.87704468 C76.52654985 13.87719959 74.14048652 13.87868728 71.75442505 13.88145447 C66.75341166 13.88283964 61.75268465 13.87025935 56.75172424 13.84750366 C50.33312525 13.81910368 43.91500171 13.82185913 37.49636745 13.83459377 C32.56966064 13.84153949 27.64306425 13.83377455 22.71637154 13.82133675 C20.34922267 13.81681257 17.98206199 13.81649384 15.61491203 13.82040215 C12.31082107 13.82330384 9.00739187 13.80685722 5.7033844 13.78500366 C4.71992538 13.78950531 3.73646637 13.79400696 2.72320557 13.79864502 C1.82454773 13.78874039 0.92588989 13.77883575 0 13.76863098 C-0.78109414 13.76620109 -1.56218828 13.76377119 -2.36695194 13.76126766 C-4.95908332 13.27540423 -5.84283066 12.4886372 -7.39598083 10.38095093 C-8.05075495 4.26972586 -8.05075495 4.26972586 -6.14729214 1.68601036 C-3.9408592 0.0417989 -2.73548039 0.00396116 0 0 Z " fill="#050101" transform="translate(201.39598083496094,401.6190490722656)"/>
<path d="M0 0 C12.54 0 25.08 0 38 0 C38 3.96 38 7.92 38 12 C25.46 12 12.92 12 0 12 C0 8.04 0 4.08 0 0 Z " fill="#EC2E3E" transform="translate(389,104)"/>
<path d="M0 0 C12.54 0 25.08 0 38 0 C38 3.96 38 7.92 38 12 C25.46 12 12.92 12 0 12 C0 8.04 0 4.08 0 0 Z " fill="#3FA157" transform="translate(288,104)"/>
<path d="M0 0 C12.21 0 24.42 0 37 0 C37 3.96 37 7.92 37 12 C24.79 12 12.58 12 0 12 C0 8.04 0 4.08 0 0 Z " fill="#F9C645" transform="translate(339,104)"/>
<path d="M0 0 C12.21 0 24.42 0 37 0 C37 3.96 37 7.92 37 12 C24.79 12 12.58 12 0 12 C0 8.04 0 4.08 0 0 Z " fill="#378B4C" transform="translate(238,104)"/>
<path d="M0 0 C0.79075928 0.00523682 1.58151855 0.01047363 2.39624023 0.01586914 C3.67724609 0.02070313 3.67724609 0.02070313 4.98413086 0.02563477 C6.33087891 0.03820312 6.33087891 0.03820312 7.70483398 0.05102539 C8.6065332 0.05553711 9.50823242 0.06004883 10.43725586 0.06469727 C12.67234712 0.07652315 14.90730835 0.09300319 17.14233398 0.11352539 C14.16217001 7.39742187 10.75564312 11.8748268 3.47827148 15.33227539 C-0.84953266 16.77970152 -5.32400928 16.94684683 -9.85766602 17.11352539 C-10.7002261 10.3730447 -10.7002261 10.3730447 -8.33422852 6.83618164 C-6.57260782 4.84806685 -4.77194799 2.9543577 -2.85766602 1.11352539 C-1.85766602 0.11352539 -1.85766602 0.11352539 0 0 Z " fill="#B2E0EE" transform="translate(38.857666015625,356.886474609375)"/>
<path d="M0 0 C0 5.61 0 11.22 0 17 C-7.92 17 -15.84 17 -24 17 C-21.20906039 8.62718117 -17.93553593 5.20979746 -10.57421875 0.8828125 C-8 0 -8 0 0 0 Z " fill="#AEDBE9" transform="translate(483,338)"/>
</svg>
